<svg width="36" height="36" viewBox="0 0 36 36" fill="none" xmlns="http://www.w3.org/2000/svg">
<g clip-path="url(#clip0_951_11)">
<mask id="mask0_951_11" style="mask-type:luminance" maskUnits="userSpaceOnUse" x="6" y="4" width="24" height="28">
<path d="M30 4H6V31.2432H30V4Z" fill="white"/>
</mask>
<g mask="url(#mask0_951_11)">
<path d="M7.9782 19.0393V21.195H10.0673V19.0393H11.3324V24.6491H10.0673V22.3019H7.9782V24.6491H6.70471V19.0393H7.9782Z" fill="#2DBB54"/>
<path d="M13.5213 20.1047H12.0149V19.0393H16.3264V20.1047H14.795V24.6493H13.5215L13.5213 20.1047Z" fill="#2DBB54"/>
<path d="M21.7118 22.502C21.6869 21.8278 21.6618 21.0123 21.6618 20.1965H21.6369C21.4622 20.9123 21.2292 21.7112 21.0127 22.3688L20.3302 24.5577H19.3397L18.7404 22.3854C18.5574 21.7278 18.3658 20.9289 18.2326 20.1965H18.216C18.1828 20.954 18.1577 21.8195 18.1162 22.5186L18.0164 24.6494H16.8427L17.2007 19.0396H18.8903L19.4395 20.9122C19.6143 21.5615 19.7892 22.2606 19.9139 22.9182H19.9388C20.0969 22.2689 20.2885 21.5283 20.4715 20.9039L21.0708 19.0396H22.727L23.0351 24.6494H21.7948L21.7118 22.502Z" fill="#2DBB54"/>
<path d="M24.0089 19.0393H25.2824V23.5839H27.5129V24.6493H24.0089V19.0393Z" fill="#2DBB54"/>
<path d="M21.6042 10.4785H25.647C24.4339 8.77552 22.0602 6.0768 20.7178 4.89673V9.46089C20.7176 10.0221 21.1152 10.4785 21.6042 10.4785Z" fill="#2DBB54"/>
<path d="M26.4064 15.4006V11.9248H21.6038C20.42 11.9248 19.4568 10.8196 19.4568 9.46097V4.31201H7.69712C6.8593 4.31201 6.18021 5.09133 6.18021 6.05292V11.411H6.18342V16.5107H28.7096V26.955H6.1839V29.575C6.21712 30.5025 6.88096 31.2433 7.69763 31.2433H24.8903C25.7281 31.2433 26.407 30.4637 26.407 29.5026V28.0649H29.8199V15.4009L26.4064 15.4006Z" fill="#2DBB54"/>
</g>
</g>
<defs>
<clipPath id="clip0_951_11">
<rect width="24" height="27.2432" fill="white" transform="translate(6 4)"/>
</clipPath>
</defs>
</svg>
