<svg width="36" height="36" viewBox="0 0 36 36" fill="none" xmlns="http://www.w3.org/2000/svg">
<g clip-path="url(#clip0_951_109)">
<mask id="mask0_951_109" style="mask-type:luminance" maskUnits="userSpaceOnUse" x="5" y="5" width="26" height="26">
<path d="M31 5H5V30.4468H31V5Z" fill="white"/>
</mask>
<g mask="url(#mask0_951_109)">
<path d="M17.7023 5.04635C17.2405 5.04635 16.825 5.46184 16.8714 5.92374V5.96979V9.15587C16.8254 9.61775 17.1483 10.0333 17.6102 10.1257C18.0721 10.1717 18.4877 9.8487 18.58 9.38684V9.1559V5.96982C18.6261 5.50795 18.2567 5.04642 17.7952 5C17.7484 5.04638 17.7023 5.04635 17.7023 5.04635ZM17.7023 11.6954C14.3778 11.6954 11.6537 14.3736 11.6537 17.7441C11.6537 21.1148 14.3778 23.7929 17.7023 23.7929C21.0268 23.7929 23.751 21.0687 23.751 17.7441C23.705 14.4196 21.0268 11.7415 17.7023 11.6954ZM17.7023 13.6348C19.9649 13.6348 21.8118 15.4816 21.8118 17.7442C21.8118 20.007 19.965 21.8537 17.7023 21.8537V13.6348ZM5.97418 16.9133C5.51231 16.8672 5.0968 17.1903 5.00437 17.6522C4.95831 18.114 5.28136 18.5295 5.74322 18.622H5.97416H9.16023C9.62211 18.668 10.0376 18.345 10.13 17.8831C10.1761 17.4213 9.85306 17.0057 9.3912 16.9133H9.16027H5.97418ZM26.2907 16.9133C25.8288 16.8672 25.4133 17.1903 25.3209 17.6522C25.2748 18.114 25.5978 18.5295 26.0597 18.622H26.2907H29.4767C29.9386 18.668 30.3541 18.345 30.4466 17.8831C30.4926 17.4213 30.1695 17.0057 29.7077 16.9133H29.4768H26.2907ZM17.7023 25.3631C17.2405 25.3631 16.825 25.7786 16.8714 26.2405V26.2865V29.4727C16.8254 29.9345 17.1483 30.35 17.6102 30.4425C18.0721 30.4885 18.4877 30.1655 18.58 29.7036V29.4727V26.2866C18.6261 25.8247 18.2567 25.3632 17.7952 25.3167C17.7484 25.3631 17.7023 25.3631 17.7023 25.3631ZM26.6601 8.74051C26.2906 8.37107 25.6902 8.37107 25.3212 8.74051L23.0586 11.0031C22.6892 11.3725 22.6892 11.9729 23.0586 12.342C23.428 12.7114 24.0284 12.7114 24.3975 12.342L26.6601 10.0794C27.0755 9.75633 27.0755 9.15599 26.6601 8.74051C26.7061 8.78656 26.7061 8.78656 26.6601 8.74051ZM10.0375 8.74051C9.66805 8.37107 9.06767 8.37107 8.69861 8.74051C8.32918 9.10994 8.32918 9.71032 8.69861 10.0794L10.9612 12.342C11.3307 12.7114 11.931 12.7114 12.3001 12.342C12.6695 11.9725 12.6695 11.3722 12.3001 11.0031L10.0375 8.74051ZM24.4438 23.1468C24.0743 22.7773 23.474 22.7773 23.1048 23.1468C22.7354 23.5162 22.7354 24.1166 23.1048 24.4856L25.3674 26.7482C25.7369 27.1176 26.3372 27.1176 26.7063 26.7482C27.0758 26.3788 27.0758 25.7784 26.7063 25.4094L24.4438 23.1468ZM12.3 23.1468C11.9305 22.7773 11.3302 22.7773 10.9611 23.1468L8.69852 25.4094C8.3291 25.7788 8.3291 26.3792 8.69852 26.7482C9.06796 27.1176 9.66834 27.1176 10.0374 26.7482L12.3 24.4856C12.6694 24.1165 12.6694 23.5162 12.3 23.1468Z" fill="#2DBB54"/>
</g>
</g>
<defs>
<clipPath id="clip0_951_109">
<rect width="26" height="26" fill="white" transform="translate(5 5)"/>
</clipPath>
</defs>
</svg>
