<svg width="36" height="36" viewBox="0 0 36 36" fill="none" xmlns="http://www.w3.org/2000/svg">
<g clip-path="url(#clip0_951_61)">
<path fill-rule="evenodd" clip-rule="evenodd" d="M23.5161 21.6243L21.8034 19.9117C21.2568 20.6205 20.6206 21.2567 19.9118 21.8033L21.6244 23.516C21.3531 23.9855 21.4178 24.5993 21.8182 24.9995L28.4606 31.6419C28.9381 32.1194 29.7193 32.1194 30.1967 31.6419L31.642 30.1966C32.1195 29.7191 32.1195 28.938 31.642 28.4605L24.9996 21.8181C24.5992 21.4177 23.9854 21.353 23.5161 21.6243ZM10.7857 13.8055L13.1858 11.2682C13.0056 10.9931 12.9004 10.6642 12.9004 10.3108C12.9004 9.34429 13.684 8.56104 14.6501 8.56104C15.6166 8.56104 16.3998 9.34455 16.3998 10.3108C16.3998 10.3942 16.3939 10.4761 16.3826 10.5564L20.6343 12.2363C20.9509 11.786 21.4744 11.4914 22.0671 11.4914C22.4088 11.4914 22.7275 11.5896 22.9972 11.7588L26.8378 7.99239C26.6794 7.72923 26.5883 7.42081 26.5883 7.09107C26.5883 6.12461 27.3718 5.34136 28.338 5.34136C29.3044 5.34136 30.0877 6.12489 30.0877 7.09107C30.0877 8.05752 29.3041 8.84076 28.338 8.84076C27.9962 8.84076 27.6776 8.74258 27.4078 8.57333L23.568 12.3404C23.7264 12.6036 23.8175 12.912 23.8175 13.2417C23.8175 14.2082 23.0339 14.9914 22.0678 14.9914C21.1013 14.9914 20.3181 14.2079 20.3181 13.2417C20.3181 13.1583 20.3241 13.0763 20.3354 12.9961L16.0836 11.3161C15.7671 11.7665 15.2435 12.0611 14.6508 12.0611C14.3321 12.0611 14.0333 11.9759 13.7759 11.8271L11.3759 14.3644C11.556 14.6396 11.6612 14.9685 11.6612 15.3219C11.6612 16.2883 10.8777 17.0716 9.91152 17.0716C8.94507 17.0716 8.16182 16.288 8.16182 15.3219C8.16182 14.3554 8.94534 13.5722 9.91152 13.5722C10.2298 13.5715 10.5285 13.6569 10.7857 13.8055ZM13.5734 4.0011C17.8809 4.0011 21.5239 6.84658 22.7254 10.7605C22.5122 10.7041 22.2917 10.6753 22.0683 10.6753C21.4572 10.6753 20.8769 10.8917 20.4203 11.2738L20.0411 11.1239C19.0525 8.51428 16.5297 6.65847 13.5735 6.65847C9.75474 6.65847 6.65896 9.7543 6.65896 13.573C6.65896 17.3918 9.75479 20.4876 13.5735 20.4876C16.8619 20.4876 19.6138 18.192 20.3148 15.1161C20.7737 15.5455 21.3903 15.8085 22.0678 15.8085C22.3649 15.8085 22.65 15.7579 22.9153 15.665C21.9611 19.9454 18.141 23.1451 13.5732 23.1451C8.28686 23.1451 4.001 18.8595 4.001 13.5729C4.00142 8.28616 8.28678 4.0011 13.5734 4.0011Z" fill="#2DBB54"/>
</g>
<defs>
<clipPath id="clip0_951_61">
<rect width="28" height="28" fill="white" transform="translate(4 4)"/>
</clipPath>
</defs>
</svg>
