<svg width="32" height="32" viewBox="0 0 32 32" fill="none" xmlns="http://www.w3.org/2000/svg">
<g clip-path="url(#clip0_945_148)">
<path d="M15.6336 0.0570436C15.0652 0.0570436 14.5538 0.568417 14.6109 1.13691V1.19359V5.11492C14.5543 5.68338 14.9518 6.19478 15.5203 6.30854C16.0888 6.36522 16.6002 5.96763 16.7139 5.39918V5.11495V1.19362C16.7706 0.625164 16.3159 0.0571338 15.7479 0C15.6904 0.0570831 15.6336 0.0570436 15.6336 0.0570436ZM15.6336 8.24054C11.5419 8.24054 8.18914 11.5367 8.18914 15.6851C8.18914 19.8336 11.5419 23.1297 15.6336 23.1297C19.7253 23.1297 23.0782 19.7768 23.0782 15.6851C23.0215 11.5934 19.7253 8.29719 15.6336 8.24054ZM15.6336 10.6274C18.4184 10.6274 20.6915 12.9004 20.6915 15.6852C20.6915 18.4701 18.4185 20.743 15.6336 20.743V10.6274ZM1.19899 14.6625C0.630539 14.6058 0.119136 15.0034 0.00537595 15.5719C-0.0513104 16.1403 0.34629 16.6517 0.914737 16.7655H1.19897H5.12029C5.68875 16.8222 6.20016 16.4246 6.31391 15.8561C6.3706 15.2877 5.973 14.7762 5.40456 14.6625H5.12033H1.19899ZM26.2039 14.6625C25.6355 14.6058 25.1241 15.0034 25.0103 15.5719C24.9536 16.1403 25.3512 16.6517 25.9197 16.7655H26.2039H30.1252C30.6937 16.8222 31.2051 16.4246 31.3189 15.8561C31.3755 15.2877 30.9779 14.7762 30.4095 14.6625H30.1253H26.2039ZM15.6336 25.0623C15.0652 25.0623 14.5538 25.5737 14.6109 26.1422V26.1988V30.1202C14.5543 30.6886 14.9518 31.2 15.5203 31.3138C16.0888 31.3705 16.6002 30.9729 16.7139 30.4044V30.1202V26.1989C16.7706 25.6304 16.3159 25.0624 15.7479 25.0052C15.6904 25.0623 15.6336 25.0623 15.6336 25.0623ZM26.6586 4.6037C26.2038 4.14901 25.4649 4.14901 25.0107 4.6037L22.226 7.38846C21.7713 7.84313 21.7713 8.58206 22.226 9.03626C22.6806 9.491 23.4196 9.491 23.8738 9.03626L26.6586 6.25155C27.1699 5.85394 27.1699 5.11506 26.6586 4.6037C26.7152 4.66038 26.7152 4.66038 26.6586 4.6037ZM6.19999 4.6037C5.7453 4.14901 5.00636 4.14901 4.55214 4.6037C4.09745 5.05838 4.09745 5.79732 4.55214 6.25155L7.33685 9.03626C7.79159 9.491 8.53052 9.491 8.98472 9.03626C9.43939 8.58158 9.43939 7.84266 8.98472 7.38846L6.19999 4.6037ZM23.9308 22.3345C23.4761 21.8798 22.7372 21.8798 22.2829 22.3345C21.8282 22.7892 21.8282 23.5281 22.2829 23.9823L25.0676 26.767C25.5223 27.2217 26.2612 27.2217 26.7155 26.767C27.1702 26.3124 27.1702 25.5734 26.7155 25.1192L23.9308 22.3345ZM8.98465 22.3345C8.52991 21.8798 7.79098 21.8798 7.33678 22.3345L4.55203 25.1192C4.09735 25.5739 4.09735 26.3128 4.55203 26.767C5.00672 27.2217 5.74565 27.2217 6.19988 26.767L8.98465 23.9823C9.43932 23.528 9.43932 22.7891 8.98465 22.3345Z" fill="#2DBB54"/>
</g>
<defs>
<clipPath id="clip0_945_148">
<rect width="32" height="31.3191" fill="white"/>
</clipPath>
</defs>
</svg>
