<svg width="36" height="36" viewBox="0 0 36 36" fill="none" xmlns="http://www.w3.org/2000/svg">
<g clip-path="url(#clip0_951_49)">
<mask id="mask0_951_49" style="mask-type:luminance" maskUnits="userSpaceOnUse" x="4" y="4" width="28" height="28">
<path d="M32 4H4V32H32V4Z" fill="white"/>
</mask>
<g mask="url(#mask0_951_49)">
<path fill-rule="evenodd" clip-rule="evenodd" d="M31.9771 17.1923C31.5841 10.2839 26.1821 4.71605 19.3462 4.06388V17.1923H31.9771ZM32 18H19.3462H18.5385V17.1923V4.01016C18.3598 4.00341 18.1803 4 18 4C10.268 4 4 10.268 4 18C4 25.732 10.268 32 18 32C25.732 32 32 25.732 32 18Z" fill="#2DB953"/>
<path d="M11.2662 26.0769C12.2737 26.0769 12.9564 25.5036 12.9564 24.6168C12.9564 23.6493 12.1737 23.3806 11.4494 23.1656C10.7917 22.9596 10.5669 22.87 10.5669 22.5744C10.5669 22.3146 10.8416 22.1623 11.1996 22.1623C11.5743 22.1623 12.0155 22.3056 12.4235 22.5833L12.8481 21.7861C12.3819 21.4547 11.7908 21.2307 11.1996 21.2307C10.2422 21.2307 9.5761 21.8219 9.5761 22.6908C9.58444 23.5149 10.1756 23.8016 11.1081 24.0614C11.5993 24.2047 11.9739 24.3212 11.9739 24.6795C11.9739 24.9661 11.6909 25.1542 11.2829 25.1542C10.7417 25.1542 10.2588 24.9392 9.84253 24.6168L9.38462 25.3782C9.90084 25.8261 10.6085 26.0769 11.2662 26.0769Z" fill="white"/>
<path d="M15.9952 26.0769C16.6779 26.0769 17.2524 25.7723 17.6687 25.2976L16.986 24.6615C16.7445 24.9571 16.3782 25.1453 16.0035 25.1453C15.2958 25.1453 14.7047 24.4644 14.7047 23.6493C14.7047 22.8431 15.2958 22.1623 16.0035 22.1623C16.3699 22.1623 16.7279 22.3504 16.961 22.6281L17.6437 21.9832C17.2358 21.5263 16.6613 21.2307 16.0119 21.2307C14.7547 21.2307 13.6973 22.3325 13.6973 23.6493C13.6973 24.9661 14.7547 26.0769 15.9952 26.0769Z" fill="white"/>
<path d="M20.1407 26.0769C21.1481 26.0769 21.8308 25.5036 21.8308 24.6168C21.8308 23.6493 21.0482 23.3806 20.3239 23.1656C19.6662 22.9596 19.4414 22.87 19.4414 22.5744C19.4414 22.3146 19.7161 22.1623 20.0741 22.1623C20.4488 22.1623 20.89 22.3056 21.298 22.5833L21.7226 21.7861C21.2563 21.4547 20.6652 21.2307 20.0741 21.2307C19.1167 21.2307 18.4506 21.8219 18.4506 22.6908C18.4589 23.5149 19.0501 23.8016 19.9825 24.0614C20.4737 24.2047 20.8484 24.3212 20.8484 24.6795C20.8484 24.9661 20.5653 25.1542 20.1573 25.1542C19.6162 25.1542 19.1333 24.9392 18.717 24.6168L18.2591 25.3782C18.7753 25.8261 19.483 26.0769 20.1407 26.0769Z" fill="white"/>
<path d="M24.3868 26.0769C25.3942 26.0769 26.0769 25.5036 26.0769 24.6168C26.0769 23.6493 25.2943 23.3806 24.57 23.1656C23.9122 22.9596 23.6874 22.87 23.6874 22.5744C23.6874 22.3146 23.9622 22.1623 24.3202 22.1623C24.6949 22.1623 25.1361 22.3056 25.5441 22.5833L25.9687 21.7861C25.5024 21.4547 24.9113 21.2307 24.3202 21.2307C23.3627 21.2307 22.6967 21.8219 22.6967 22.6908C22.705 23.5149 23.2961 23.8016 24.2286 24.0614C24.7198 24.2047 25.0945 24.3212 25.0945 24.6795C25.0945 24.9661 24.8114 25.1542 24.4034 25.1542C23.8623 25.1542 23.3794 24.9392 22.9631 24.6168L22.5051 25.3782C23.0214 25.8261 23.7291 26.0769 24.3868 26.0769Z" fill="white"/>
</g>
</g>
<defs>
<clipPath id="clip0_951_49">
<rect width="28" height="28" fill="white" transform="translate(4 4)"/>
</clipPath>
</defs>
</svg>
