<svg width="36" height="36" viewBox="0 0 36 36" fill="none" xmlns="http://www.w3.org/2000/svg">
<g clip-path="url(#clip0_951_77)">
<mask id="mask0_951_77" style="mask-type:luminance" maskUnits="userSpaceOnUse" x="4" y="6" width="28" height="24">
<path d="M32 6H4V29.234H32V6Z" fill="white"/>
</mask>
<g mask="url(#mask0_951_77)">
<mask id="mask1_951_77" style="mask-type:luminance" maskUnits="userSpaceOnUse" x="4" y="6" width="28" height="24">
<path d="M32 6H4V29.234H32V6Z" fill="white"/>
</mask>
<g mask="url(#mask1_951_77)">
<path d="M7.08881 9.03637C7.03597 7.45669 8.21794 6 9.81558 6H26.1864C27.7841 6 28.9661 7.45669 28.9132 9.03637C28.8625 10.5538 28.9283 12.5195 29.4034 14.1223C29.88 15.7299 30.6837 16.7462 32 16.8768V18.3573C30.6837 18.4879 29.88 19.5041 29.4034 21.1118C28.9283 22.7146 28.8625 24.6802 28.9132 26.1977C28.9661 27.7774 27.7841 29.234 26.1864 29.234H9.81558C8.21794 29.234 7.03597 27.7774 7.08886 26.1977C7.13956 24.6802 7.07366 22.7146 6.59853 21.1118C6.12198 19.5041 5.31633 18.4879 4 18.3573V16.8768C5.31627 16.7462 6.12198 15.7299 6.59853 14.1223C7.07366 12.5195 7.13956 10.5538 7.08881 9.03637Z" fill="#2DBB54"/>
<g filter="url(#filter0_d_951_77)">
<path d="M18.6068 23.7933C21.1933 23.7933 22.752 22.4745 22.752 20.2993C22.752 18.6551 21.6399 17.4647 19.9885 17.2763V17.2078C21.2018 17.0023 22.1538 15.8291 22.1538 14.5189C22.1538 12.652 20.7384 11.4359 18.5815 11.4359H13.7286V23.7933H18.6068ZM15.6158 13.0031H18.1266C19.4914 13.0031 20.2666 13.6368 20.2666 14.7843C20.2666 16.0089 19.3651 16.694 17.7306 16.694H15.6158V13.0031ZM15.6158 22.2262V18.1584H18.1097C19.8958 18.1584 20.8226 18.8435 20.8226 20.1794C20.8226 21.5153 19.9212 22.2262 18.2192 22.2262H15.6158Z" fill="white"/>
<path d="M18.6068 23.7933C21.1933 23.7933 22.752 22.4745 22.752 20.2993C22.752 18.6551 21.6399 17.4647 19.9885 17.2763V17.2078C21.2018 17.0023 22.1538 15.8291 22.1538 14.5189C22.1538 12.652 20.7384 11.4359 18.5815 11.4359H13.7286V23.7933H18.6068ZM15.6158 13.0031H18.1266C19.4914 13.0031 20.2666 13.6368 20.2666 14.7843C20.2666 16.0089 19.3651 16.694 17.7306 16.694H15.6158V13.0031ZM15.6158 22.2262V18.1584H18.1097C19.8958 18.1584 20.8226 18.8435 20.8226 20.1794C20.8226 21.5153 19.9212 22.2262 18.2192 22.2262H15.6158Z" fill="white"/>
</g>
</g>
</g>
</g>
<defs>
<filter id="filter0_d_951_77" x="-2.27143" y="-0.564087" width="41.0234" height="44.3573" filterUnits="userSpaceOnUse" color-interpolation-filters="sRGB">
<feFlood flood-opacity="0" result="BackgroundImageFix"/>
<feColorMatrix in="SourceAlpha" type="matrix" values="0 0 0 0 0 0 0 0 0 0 0 0 0 0 0 0 0 0 127 0" result="hardAlpha"/>
<feOffset dy="4"/>
<feGaussianBlur stdDeviation="8"/>
<feColorMatrix type="matrix" values="0 0 0 0 0 0 0 0 0 0 0 0 0 0 0 0 0 0 0.15 0"/>
<feBlend mode="normal" in2="BackgroundImageFix" result="effect1_dropShadow_951_77"/>
<feBlend mode="normal" in="SourceGraphic" in2="effect1_dropShadow_951_77" result="shape"/>
</filter>
<clipPath id="clip0_951_77">
<rect width="28" height="23.234" fill="white" transform="translate(4 6)"/>
</clipPath>
</defs>
</svg>
