<svg width="36" height="36" viewBox="0 0 36 36" fill="none" xmlns="http://www.w3.org/2000/svg">
<g clip-path="url(#clip0_951_62)">
<path d="M28.6598 9.36293C28.6598 9.34246 28.6565 9.32533 28.6529 9.30486C28.6496 9.2844 28.646 9.26393 28.6427 9.24346C28.6393 9.223 28.6325 9.20254 28.6256 9.17874C28.6187 9.16517 28.612 9.14804 28.6051 9.1309C28.5982 9.11044 28.5879 9.08665 28.5744 9.0626C28.5711 9.05571 28.5642 9.04548 28.5572 9.03881C28.5437 9.01144 28.5266 8.98765 28.5094 8.96385L24.6854 4.25248C24.6207 4.17038 24.5388 4.10899 24.4534 4.06806C24.4501 4.06473 24.4465 4.06473 24.4432 4.06473C24.4022 4.04426 24.358 4.0307 24.3135 4.02047C24.3101 4.01713 24.3032 4.01713 24.2963 4.01713C24.2521 4.0069 24.2111 4.00357 24.1667 4.00357C24.1633 4.00357 24.1598 4.00024 24.1564 4.00024L7.68225 4C7.30697 4 7 4.30699 7 4.68225V31.4289C7 31.8075 7.30698 32.1111 7.68225 32.1111H27.981C28.3563 32.1111 28.6633 31.8075 28.6633 31.4289L28.6635 9.39386C28.6635 9.38362 28.6598 9.37317 28.6598 9.36293ZM14.734 20.5529L19.6704 8.93648C19.8206 8.58857 20.2197 8.42817 20.5676 8.57477C20.9122 8.72135 21.0759 9.124 20.9293 9.47195L15.9895 21.0883C15.8803 21.3477 15.6278 21.5045 15.3617 21.5045C15.273 21.5045 15.1844 21.4874 15.0957 21.45C14.7511 21.2999 14.5871 20.9007 14.734 20.5529ZM10.5342 14.5315L13.2464 11.8192C13.5124 11.5532 13.9458 11.5532 14.2118 11.8192C14.4779 12.0853 14.4779 12.5186 14.2118 12.7847L11.9807 15.0123L14.2118 17.24C14.4779 17.506 14.4779 17.9393 14.2118 18.2055C14.0789 18.3384 13.9049 18.4032 13.7274 18.4032C13.5534 18.4032 13.3794 18.3384 13.2464 18.2055L10.5342 15.4932C10.4081 15.3672 10.3365 15.1929 10.3365 15.0123C10.3365 14.8315 10.4081 14.6575 10.5342 14.5315ZM17.4633 29.6312H15.4608V27.6287H13.4583V29.6312H11.4558V27.6287H9.45324V25.6262H11.4558V27.6287H13.4583V25.6262H15.4608V27.6287H17.4633V25.6262H19.4659V27.6287H17.4633V29.6312ZM22.352 29.6312H19.4659L22.352 25.6262C23.4574 25.6262 24.3545 26.5234 24.3545 27.6287C24.3545 28.7341 23.4573 29.6312 22.352 29.6312ZM25.1291 15.494L22.4169 18.2062C22.2839 18.3392 22.1099 18.4075 21.936 18.4075C21.7587 18.4075 21.5845 18.3392 21.4515 18.2062C21.1854 17.9401 21.1854 17.5068 21.4515 17.2407L23.6791 15.0131L21.4515 12.7855C21.1854 12.5194 21.1854 12.0861 21.4515 11.82C21.7211 11.5539 22.1508 11.5539 22.4169 11.82L25.1291 14.5322C25.3952 14.798 25.3952 15.2277 25.1291 15.494Z" fill="#2DBB54"/>
</g>
<defs>
<clipPath id="clip0_951_62">
<rect width="22" height="28.1111" fill="white" transform="translate(7 4)"/>
</clipPath>
</defs>
</svg>
