<svg width="36" height="36" viewBox="0 0 36 36" fill="none" xmlns="http://www.w3.org/2000/svg">
<g clip-path="url(#clip0_951_23)">
<path d="M5.32471 23.0184L5.34133 23.072H5.39749H7.04098H7.09603L7.1133 23.0198L9.33369 16.3163L11.5412 23.0197L11.5585 23.072H11.6136H13.2703H13.3265L13.3431 23.0183L16.2192 13.6933L16.2497 13.5946H16.1464H14.3306H14.2735L14.2575 13.6495L12.3788 20.0891L10.3077 13.6475L10.2907 13.5946H10.2352H8.43266H8.3772L8.36013 13.6474L6.27601 20.0898L4.39707 13.6495L4.38106 13.5946H4.32392H2.50814H2.40476L2.43536 13.6934L5.32471 23.0184ZM22.2873 18.1967C23.1758 17.8498 23.8317 17.1226 23.8317 16.0462C23.8317 15.2824 23.4991 14.6263 22.9184 14.1627C22.3388 13.7001 21.5157 13.4318 20.5348 13.4318C18.9568 13.4318 17.8756 14.1517 17.1347 15.1036L17.0944 15.1553L17.1396 15.2029L18.1204 16.2344L18.1777 16.2947L18.2327 16.2324C18.8476 15.5356 19.5178 15.1044 20.389 15.1044C21.3491 15.1044 22.0094 15.6182 22.0094 16.3177C22.0094 16.6996 21.8462 16.9917 21.557 17.1897C21.2646 17.3899 20.8379 17.4969 20.3105 17.4903H20.3095H19.2889H19.2128V17.5664V19.0324V19.1096L19.29 19.1086L20.3095 19.095C20.9456 19.0951 21.4193 19.2029 21.7312 19.4036C22.038 19.6009 22.1949 19.8918 22.1949 20.2811C22.1949 20.6653 22.0364 20.9859 21.75 21.2122C21.462 21.4399 21.0394 21.5759 20.5083 21.5759C19.5521 21.5759 18.6975 21.1395 18.0741 20.4212L18.0178 20.3563L17.9601 20.4201L16.9528 21.5331L16.9089 21.5817L16.9503 21.6324C17.7072 22.5599 18.9484 23.2349 20.5613 23.2349C21.6021 23.2349 22.4686 22.9461 23.0765 22.4473C23.6855 21.9477 24.0305 21.2407 24.0305 20.4169C24.0305 19.2114 23.1905 18.4882 22.2873 18.1967ZM33.5479 21.6905L33.5994 21.6354L33.5449 21.5834L32.3785 20.4703L32.3204 20.4149L32.2681 20.4759C31.7108 21.1262 30.9226 21.5352 30.0595 21.5352C28.4223 21.5352 27.0343 20.0802 27.0343 18.3265C27.0343 16.5867 28.4221 15.1315 30.0595 15.1315C30.9097 15.1315 31.7107 15.5407 32.2542 16.1901L32.3064 16.2525L32.3653 16.1963L33.5449 15.0697L33.5998 15.0173L33.5476 14.9622C32.6597 14.0253 31.4208 13.4318 30.0595 13.4318C27.4192 13.4318 25.1986 15.6653 25.1986 18.3265C25.1986 20.9876 27.4189 23.2349 30.0595 23.2349C31.4209 23.2349 32.6599 22.6413 33.5479 21.6905Z" fill="#2DBB54"/>
</g>
<defs>
<clipPath id="clip0_951_23">
<rect width="32" height="10.6667" fill="white" transform="translate(2 13)"/>
</clipPath>
</defs>
</svg>
