<svg width="36" height="36" viewBox="0 0 36 36" fill="none" xmlns="http://www.w3.org/2000/svg">
<g clip-path="url(#clip0_951_89)">
<path d="M31.5651 14.4317L31.0414 18.1071L30.3801 22.7012L29.7276 27.2954C29.7276 27.5389 29.6308 27.7729 29.4584 27.9449C29.286 28.1174 29.0524 28.2141 28.8085 28.2141H6.7566C6.24899 28.2141 5.83753 27.8026 5.83753 27.2954L5.18507 22.7012L4.52363 18.1071L4 14.4317C4 13.9241 4.41147 13.5129 4.91875 13.5129H22.3765V21.9662C22.3765 22.0271 22.4008 22.0854 22.4438 22.1286C22.4867 22.1716 22.5454 22.1959 22.6063 22.1959C22.6672 22.194 22.7255 22.1716 22.7716 22.1315L24.4623 19.7335L24.5082 19.6602C24.5515 19.6153 24.611 19.5896 24.6735 19.5896C24.736 19.5896 24.7957 19.615 24.8389 19.6598L24.8847 19.7332L26.5293 22.0579L26.5751 22.1313C26.6213 22.1713 26.6799 22.1941 26.7408 22.196C26.8017 22.196 26.8604 22.1716 26.9033 22.1287C26.9462 22.0854 26.9706 22.0271 26.9706 21.9662V13.513H30.646C30.8896 13.513 31.1235 13.6098 31.2956 13.7822C31.468 13.9543 31.5651 14.1882 31.5651 14.4317Z" fill="#2DBB54"/>
<path d="M29.727 10.7563V12.5938L26.9704 12.5941V12.1346C26.9704 12.0128 26.9219 11.8958 26.8357 11.8096C26.7495 11.7234 26.6329 11.6751 26.5108 11.6751H22.8357C22.5819 11.6751 22.3762 11.8808 22.3762 12.1346V12.5941H5.83727V8.91875C5.83727 8.41114 6.24874 8 6.75634 8H13.188L13.7392 8.18363H13.7668C14.3916 8.58805 14.9153 9.50682 15.586 9.75483C15.6995 9.80418 15.8209 9.83237 15.9446 9.8375H28.8082C29.0521 9.8375 29.2854 9.93428 29.4578 10.1067C29.6302 10.2788 29.727 10.5128 29.727 10.7563Z" fill="#2DBB54"/>
</g>
<defs>
<clipPath id="clip0_951_89">
<rect width="28" height="20.2553" fill="white" transform="translate(4 8)"/>
</clipPath>
</defs>
</svg>
