<svg width="36" height="36" viewBox="0 0 36 36" fill="none" xmlns="http://www.w3.org/2000/svg">
<g clip-path="url(#clip0_951_35)">
<mask id="mask0_951_35" style="mask-type:luminance" maskUnits="userSpaceOnUse" x="4" y="4" width="28" height="28">
<path d="M32 4H4V32H32V4Z" fill="white"/>
</mask>
<g mask="url(#mask0_951_35)">
<path d="M6.50681 7.29455C6.50681 6.83631 6.88477 6.46465 7.35091 6.46465H18.6982C19.1644 6.46465 19.5423 6.83629 19.5423 7.29455V21.2876C19.5423 21.3081 19.5415 21.3283 19.5401 21.3485L21.2859 22.4453L22.0491 21.6872V4.61625C22.0491 4.27597 21.7686 4 21.4225 4H4.6267C4.2807 4 4 4.27597 4 4.61625V23.9663C4 24.3068 4.28071 24.5825 4.6267 24.5825H14.9196L13.3975 22.1176H7.35111C6.88498 22.1176 6.50701 21.746 6.50701 21.2876L6.50681 7.29455Z" fill="#2DBB54"/>
<path d="M16.4059 19.379L15.1763 18.6065C14.1336 17.9514 12.9693 18.5022 12.5715 19.4058H9.98334C9.5172 19.4058 9.13944 19.0343 9.13944 18.5759V17.7709C9.13944 17.3125 9.5172 16.9408 9.98334 16.9408H16.1918C16.6579 16.9408 17.0359 17.3124 17.0359 17.7709V18.5759C17.0359 18.9615 16.7684 19.2859 16.4059 19.379Z" fill="#2DBB54"/>
<path d="M9.98334 12.9969C9.5172 12.9969 9.13944 13.3686 9.13944 13.8268V14.6321C9.13944 15.0903 9.5172 15.462 9.98334 15.462H16.1918C16.6579 15.462 17.0359 15.0903 17.0359 14.6321V13.8268C17.0359 13.3686 16.6579 12.9969 16.1918 12.9969H9.98334Z" fill="#2DBB54"/>
<path d="M9.98334 9.17603C9.5172 9.17603 9.13944 9.54748 9.13944 10.0059V10.811C9.13944 11.2694 9.5172 11.6409 9.98334 11.6409H16.1918C16.6579 11.6409 17.0359 11.2694 17.0359 10.811V10.0059C17.0359 9.54749 16.6579 9.17603 16.1918 9.17603H9.98334Z" fill="#2DBB54"/>
<path fill-rule="evenodd" clip-rule="evenodd" d="M31.8452 14.3185C31.9193 14.2447 32.0394 14.3353 31.9864 14.4249L21.6016 31.9563C21.5673 32.0141 21.4827 32.0148 21.4473 31.9577L14.1415 20.1261C14.0922 20.0462 14.1865 19.9557 14.2666 20.006L21.4643 24.5281C21.5001 24.5504 21.5468 24.5453 21.5764 24.5157L31.8452 14.3185Z" fill="#2DBB54"/>
</g>
</g>
<defs>
<clipPath id="clip0_951_35">
<rect width="28" height="28" fill="white" transform="translate(4 4)"/>
</clipPath>
</defs>
</svg>
