<svg width="32" height="35" viewBox="0 0 32 35" fill="none" xmlns="http://www.w3.org/2000/svg">
<g clip-path="url(#clip0_945_150)">
<path d="M31.2332 24.131L28.4965 22.6428L16.6189 29.1262H16.6187C16.2076 29.3637 15.7014 29.3637 15.29 29.1262L3.46562 22.6428L0.72895 24.131C0.446324 24.2834 0.228655 24.5332 0.115664 24.8339C0.00296945 25.1343 0.00296945 25.4658 0.115664 25.7662C0.228655 26.0669 0.446331 26.3166 0.72895 26.469L15.3434 34.4406C15.5454 34.5574 15.7743 34.6188 16.0077 34.6188C16.2408 34.6188 16.47 34.5574 16.672 34.4406L31.2865 26.469C31.5688 26.3166 31.7868 26.0669 31.8995 25.7662C32.0122 25.4658 32.0122 25.1343 31.8995 24.8339C31.7868 24.5332 31.5688 24.2834 31.2865 24.131H31.2332Z" fill="#2DBB54"/>
<path d="M0.728825 10.5263L15.3433 18.4978C15.5453 18.6147 15.7742 18.676 16.0076 18.676C16.2407 18.676 16.4699 18.6147 16.6719 18.4978L31.2864 10.5263C31.5687 10.3739 31.7866 10.1241 31.8993 9.82343C32.0121 9.52302 32.0121 9.19146 31.8993 8.89105C31.7866 8.59035 31.5687 8.34067 31.2864 8.18824L16.6719 0.216688C16.4699 0.0998406 16.2407 0.0384521 16.0076 0.0384521C15.7742 0.0384521 15.5453 0.09984 15.3433 0.216688L0.728825 8.18824C0.446202 8.34067 0.228533 8.59035 0.115542 8.89105C0.00284748 9.19146 0.00284748 9.52302 0.115542 9.82343C0.228533 10.1241 0.44621 10.3739 0.728825 10.5263Z" fill="#2DBB54"/>
<path d="M31.2332 16.1594L28.4966 14.6713L16.619 21.1546H16.6187C16.2077 21.3922 15.7015 21.3922 15.2901 21.1546L6.24279 16.1858L3.46582 14.6713L0.729163 16.1594C0.446536 16.3119 0.228869 16.5616 0.115878 16.8623C0.00318317 17.1627 0.00318317 17.4943 0.115878 17.7946C0.228869 18.0954 0.446544 18.3451 0.729163 18.4975L15.3437 26.469C15.5456 26.5859 15.7745 26.6472 16.0079 26.6472C16.241 26.6472 16.4703 26.5859 16.6722 26.469L31.2867 18.4975C31.569 18.3451 31.787 18.0954 31.8997 17.7946C32.0123 17.4942 32.0123 17.1627 31.8997 16.8623C31.787 16.5616 31.569 16.3119 31.2867 16.1594H31.2332Z" fill="#2DBB54"/>
</g>
<defs>
<clipPath id="clip0_945_150">
<rect width="32" height="34.6192" fill="white"/>
</clipPath>
</defs>
</svg>
