<svg width="32" height="10" viewBox="0 0 32 10" fill="none" xmlns="http://www.w3.org/2000/svg">
<g clip-path="url(#clip0_945_140)">
<mask id="mask0_945_140" style="mask-type:luminance" maskUnits="userSpaceOnUse" x="0" y="0" width="32" height="10">
<path d="M32 0H0V9.55224H32V0Z" fill="white"/>
</mask>
<g mask="url(#mask0_945_140)">
<path d="M0 9.55224H1.98628V6.45158H4.17525C6.18856 6.45158 7.67489 5.11675 7.67489 3.22579C7.67489 1.33481 6.18856 0 4.17525 0H0V9.55224ZM1.98628 4.57451V1.87708H3.95905C4.94543 1.87708 5.62106 2.40544 5.62106 3.22579C5.62106 4.04615 4.94543 4.57451 3.95905 4.57451H1.98628Z" fill="#2DBB54"/>
<path d="M11.082 9.55224H13.0953L15.2978 2.98942L17.4868 9.55224H19.4866L22.2971 0H20.1352L18.4191 6.40989L16.3653 0H14.2033L12.1495 6.40989L10.4334 0H8.27148L11.082 9.55224Z" fill="#2DBB54"/>
<path d="M29.7567 9.55224H31.9997L28.2163 0H25.9868L22.2034 9.55224H24.4329L25.0274 8.05058H29.1621L29.7567 9.55224ZM25.7165 6.31255L27.0948 2.82257L28.473 6.31255H25.7165Z" fill="#2DBB54"/>
</g>
</g>
<defs>
<clipPath id="clip0_945_140">
<rect width="32" height="9.55224" fill="white"/>
</clipPath>
</defs>
</svg>
