<svg width="36" height="36" viewBox="0 0 36 36" fill="none" xmlns="http://www.w3.org/2000/svg">
<g clip-path="url(#clip0_951_137)">
<path d="M28.4372 15.4621V14.6185C28.4372 8.77105 23.6661 4 17.8187 4C11.9712 4 7.2002 8.77105 7.2002 14.6185V15.4621C5.33833 16.1603 4 17.964 4 20.0585C4 22.764 6.21092 24.9751 8.91656 24.9751H10.6912C11.1567 24.9751 11.5347 24.5969 11.5347 24.1316V15.9858C11.5347 15.5203 11.1564 15.1423 10.6912 15.1423H9.87659V14.6188C9.87659 10.2259 13.4258 6.6767 17.8187 6.6767C22.2115 6.6767 25.7607 10.2259 25.7607 14.6188V15.1423H24.9461C24.4806 15.1423 24.1026 15.5206 24.1026 15.9858V24.1316C24.1026 24.5971 24.4808 24.9751 24.9461 24.9751H25.3244C24.4808 26.9243 22.619 28.2916 20.4078 28.4661C20.2915 27.9133 19.7968 27.477 19.186 27.477H16.4223C15.7241 27.477 15.1715 28.0298 15.1715 28.7279V30.1534C15.1715 30.8516 15.7243 31.4043 16.4223 31.4043H19.186C19.797 31.4043 20.3205 30.968 20.4078 30.3569C23.6953 30.1824 26.4298 27.9423 27.3608 24.9168C29.7464 24.5967 31.6083 22.5312 31.6083 20.0585C31.6373 17.935 30.2991 16.1603 28.4372 15.4621Z" fill="#2DBB54"/>
<path d="M16.1899 15.1711C16.1899 14.7056 16.3936 14.2401 16.7716 13.9203C17.1499 13.6002 17.6152 13.4839 18.11 13.5712C18.75 13.6875 19.3028 14.2112 19.3901 14.8513C19.5646 15.7823 18.9538 16.4804 18.2845 16.6842C17.3535 16.9751 16.7427 17.8477 16.7427 18.866V19.7678C16.7427 20.3496 17.2082 20.8151 17.7899 20.8151C18.3717 20.8151 18.8373 20.3496 18.8373 19.7678V18.866C18.8373 18.7787 18.8955 18.6915 18.9245 18.6915C20.6991 18.1097 21.7755 16.3351 21.4554 14.4732C21.1937 12.9604 19.9719 11.7386 18.459 11.4768C17.3534 11.2731 16.2481 11.564 15.4043 12.2914C14.5608 12.9896 14.066 14.037 14.066 15.1423C14.066 15.7241 14.5315 16.1896 15.1133 16.1896C15.7243 16.2184 16.1899 15.7528 16.1899 15.1711Z" fill="#2DBB54"/>
<path d="M18.9532 22.8514C18.9532 23.478 18.4453 23.9859 17.8186 23.9859C17.1919 23.9859 16.684 23.478 16.684 22.8514C16.684 22.2247 17.1919 21.7168 17.8186 21.7168C18.4453 21.7168 18.9532 22.2247 18.9532 22.8514Z" fill="#2DBB54"/>
</g>
<defs>
<clipPath id="clip0_951_137">
<rect width="28" height="27.4043" fill="white" transform="translate(4 4)"/>
</clipPath>
</defs>
</svg>
