<svg width="36" height="36" viewBox="0 0 36 36" fill="none" xmlns="http://www.w3.org/2000/svg">
<g clip-path="url(#clip0_951_123)">
<g filter="url(#filter0_d_951_123)">
<path d="M24.5196 3.75H16.0196C14.7769 3.75 13.7696 4.75736 13.7696 6V22.32C13.7696 23.5626 14.7769 24.57 16.0196 24.57H24.5196C25.7622 24.57 26.7696 23.5626 26.7696 22.32V6C26.7696 4.75736 25.7622 3.75 24.5196 3.75Z" fill="#2DB953" stroke="white" stroke-width="3"/>
<path d="M19 7.68005H10.5C9.39543 7.68005 8.5 8.57548 8.5 9.68005V26C8.5 27.1046 9.39543 28 10.5 28H19C20.1046 28 21 27.1046 21 26V9.68005C21 8.57548 20.1046 7.68005 19 7.68005Z" fill="#2DB953" stroke="white" stroke-width="2"/>
<path d="M13.3906 9.31006H16.5707" stroke="white" stroke-linecap="round"/>
<path d="M18.9102 5.62988H22.0902" stroke="white" stroke-linecap="round"/>
</g>
</g>
<defs>
<filter id="filter0_d_951_123" x="3.5" y="2.25" width="28.7696" height="34.75" filterUnits="userSpaceOnUse" color-interpolation-filters="sRGB">
<feFlood flood-opacity="0" result="BackgroundImageFix"/>
<feColorMatrix in="SourceAlpha" type="matrix" values="0 0 0 0 0 0 0 0 0 0 0 0 0 0 0 0 0 0 127 0" result="hardAlpha"/>
<feOffset dy="4"/>
<feGaussianBlur stdDeviation="2"/>
<feComposite in2="hardAlpha" operator="out"/>
<feColorMatrix type="matrix" values="0 0 0 0 0 0 0 0 0 0 0 0 0 0 0 0 0 0 0.25 0"/>
<feBlend mode="normal" in2="BackgroundImageFix" result="effect1_dropShadow_951_123"/>
<feBlend mode="normal" in="SourceGraphic" in2="effect1_dropShadow_951_123" result="shape"/>
</filter>
<clipPath id="clip0_951_123">
<rect width="24" height="29.5" fill="white" transform="translate(6 3)"/>
</clipPath>
</defs>
</svg>
