<svg width="36" height="36" viewBox="0 0 36 36" fill="none" xmlns="http://www.w3.org/2000/svg">
<g clip-path="url(#clip0_951_88)">
<path d="M16.4622 19.3672V18.2513C16.4622 16.7323 17.702 15.5234 19.1901 15.5234C19.9341 15.5234 20.6161 15.8023 21.143 16.3293C21.3911 16.5773 21.6079 16.8872 21.7321 17.2281C23.344 15.7403 24.367 13.5704 24.367 11.1835C24.367 6.65766 20.7093 3 16.1835 3C11.6577 3 8 6.65766 8 11.1835C8 15.7093 11.6577 19.367 16.1835 19.367C16.2761 19.3672 16.369 19.3672 16.4622 19.3672ZM15.3463 14.1285C15.0983 14.1285 14.8193 14.0355 14.6334 13.8496L12.4636 11.6797C12.0605 11.2767 12.0605 10.6568 12.4636 10.2537C12.8666 9.85061 13.4865 9.85066 13.8896 10.2537L15.3156 11.6797L18.4463 8.54898C18.8494 8.14594 19.4693 8.14594 19.8724 8.54898C20.2754 8.95205 20.2754 9.57194 19.8724 9.975L16.0281 13.8496C15.8422 14.0355 15.5941 14.1285 15.3463 14.1285Z" fill="#2DBB54"/>
<path d="M27.5902 24.6679C27.5902 23.955 27.0012 23.3969 26.3192 23.3969C25.8543 23.3969 25.4513 23.645 25.2342 23.986V23.955C25.2342 23.2421 24.6452 22.6841 23.9632 22.6841C23.4983 22.6841 23.0953 22.9321 22.8782 23.2731V23.2421C22.8782 22.5292 22.2891 21.9712 21.6072 21.9712C21.1423 21.9712 20.7392 22.2192 20.5221 22.5602L20.5226 18.2512C20.5226 17.9102 20.3987 17.5693 20.1507 17.3524C19.9027 17.1044 19.5928 16.9805 19.2518 16.9805C18.5389 16.9805 17.9808 17.5695 17.9808 18.2515V26.187C17.9808 26.249 17.9499 26.3109 17.8569 26.342C17.7949 26.3729 17.7019 26.342 17.671 26.3111L16.3691 25.0092C15.9351 24.5752 15.2222 24.5131 14.7262 24.8541C14.4161 25.0712 14.2302 25.3811 14.1683 25.753C14.1063 26.1249 14.2304 26.497 14.4473 26.7759L17.7021 30.6816C18.6321 31.7975 19.9649 32.4175 21.4218 32.4175H23.3743C24.4902 32.4175 25.5753 31.9835 26.3811 31.1776C27.187 30.3717 27.6209 29.3176 27.6209 28.1708L27.5902 24.6679Z" fill="#2DBB54"/>
</g>
<defs>
<clipPath id="clip0_951_88">
<rect width="20" height="29.4444" fill="white" transform="translate(8 3)"/>
</clipPath>
</defs>
</svg>
