<svg width="32" height="32" viewBox="0 0 32 32" fill="none" xmlns="http://www.w3.org/2000/svg">
<g clip-path="url(#clip0_945_135)">
<path d="M4.5669 0H9.13381C11.6561 0 13.7007 2.52233 13.7007 4.5669V9.13381C13.7007 11.6561 11.6561 13.7007 9.13381 13.7007H4.5669C2.04458 13.7007 0 11.1784 0 9.13381V4.5669C0 2.04458 2.04458 0 4.5669 0Z" fill="#2DBB54"/>
<path d="M22.8301 0H27.397C29.9193 0 31.9639 2.52233 31.9639 4.5669V9.13381C31.9639 11.6561 29.9193 13.7007 27.397 13.7007H22.8301C20.3077 13.7007 18.2632 11.1784 18.2632 9.13381V4.5669C18.2632 2.04458 20.3077 0 22.8301 0Z" fill="#2DBB54"/>
<path d="M4.5669 17.9078H9.13381C11.6561 17.9078 13.7007 20.4302 13.7007 22.4747V27.0416C13.7007 29.564 11.6561 31.6085 9.13381 31.6085H4.5669C2.04458 31.6085 0 29.0862 0 27.0416V22.4747C0 19.9524 2.04458 17.9078 4.5669 17.9078Z" fill="#2DBB54"/>
<path d="M22.8301 17.9078H27.397C29.9193 17.9078 31.9639 20.4302 31.9639 22.4747V27.0416C31.9639 29.564 29.9193 31.6085 27.397 31.6085H22.8301C20.3077 31.6085 18.2632 29.0862 18.2632 27.0416V22.4747C18.2632 19.9524 20.3077 17.9078 22.8301 17.9078Z" fill="#2DBB54"/>
</g>
<defs>
<clipPath id="clip0_945_135">
<rect width="32" height="31.6254" fill="white"/>
</clipPath>
</defs>
</svg>
